<?xml version="1.0" encoding="iso-8859-1"?>
<!-- Generator: Adobe Illustrator 17.1.0, SVG Export Plug-In . SVG Version: 6.00 Build 0)  -->
<!DOCTYPE svg PUBLIC "-//W3C//DTD SVG 1.1//EN" "http://www.w3.org/Graphics/SVG/1.1/DTD/svg11.dtd">
<svg version="1.1" id="Capa_1" xmlns="http://www.w3.org/2000/svg" xmlns:xlink="http://www.w3.org/1999/xlink" x="0px" y="0px"
	 viewBox="0 0 385.555 385.555" style="enable-background:new 0 0 385.555 385.555;" xml:space="preserve">
<path d="M192.777,0c-53.9,0-97.751,43.851-97.751,97.751c0,44.071,29.318,81.417,69.473,93.575v161.053
	c0,4.026,1.977,9.101,4.7,12.065l16.514,17.975c1.832,1.993,4.406,3.135,7.064,3.135c2.659,0,5.233-1.143,7.064-3.136l16.513-17.975
	c2.725-2.965,4.701-8.039,4.701-12.065v-7.564c0-5.514-4.486-10-10-10h-9.322v-16.279h9.322c5.514,0,10-4.486,10-10v-6.755
	c0-5.514-4.486-10-10-10h-9.322v-17.06h9.322c5.514,0,10-4.486,10-10v-73.394c40.155-12.158,69.474-49.504,69.474-93.575
	C290.529,43.851,246.677,0,192.777,0z M192.777,104.948c-20.985,0-37.996-17.012-37.996-37.996
	c0-20.985,17.011-37.996,37.996-37.996s37.996,17.012,37.996,37.996C230.773,87.936,213.762,104.948,192.777,104.948z"/>
<g>
</g>
<g>
</g>
<g>
</g>
<g>
</g>
<g>
</g>
<g>
</g>
<g>
</g>
<g>
</g>
<g>
</g>
<g>
</g>
<g>
</g>
<g>
</g>
<g>
</g>
<g>
</g>
<g>
</g>
</svg>
